<svg width="27" height="27" viewBox="0 0 27 27" fill="none" xmlns="http://www.w3.org/2000/svg">
<g clip-path="url(#clip0_168_262)">
<path fill-rule="evenodd" clip-rule="evenodd" d="M5.87522 5.88208H11.4311V11.4016H5.87522V5.88208ZM7.85491 3.2607e-06H5.08026C4.41734 -0.000752722 3.76088 0.129953 3.14902 0.384525C2.5324 0.639373 1.97198 1.01266 1.49964 1.48316C1.02824 1.95457 0.654149 2.51373 0.398587 3.12891C0.137486 3.74268 0.00197061 4.40233 6.28818e-06 5.0691V8.49024H2.25276V5.0691C2.25507 4.69931 2.32988 4.33355 2.47297 3.99244C2.61341 3.64969 2.82076 3.33822 3.08295 3.07618C3.61296 2.54824 4.33136 2.25187 5.08026 2.2522H7.85491V3.2607e-06ZM21.9198 3.2607e-06H20.1074V2.24781H21.9198C22.2903 2.25034 22.6568 2.32498 22.9988 2.46753C23.3411 2.60992 23.6528 2.81654 23.9171 3.07618L23.9941 3.15528C24.2216 3.40153 24.4042 3.6856 24.5337 3.99463C24.6777 4.33467 24.7526 4.69991 24.7539 5.0691V8.49024H27.0066V5.0691C27.0072 3.76375 26.5004 2.50904 25.5929 1.56885L25.5114 1.48755C25.0389 1.01719 24.4785 0.643919 23.862 0.388919C23.247 0.131692 22.5866 -0.000526095 21.9198 3.2607e-06ZM27 21.9309V18.1318H24.7473V21.9309C24.746 22.3001 24.6711 22.6653 24.527 23.0054C24.3828 23.3477 24.1734 23.6588 23.9105 23.9216C23.649 24.1843 23.3382 24.3928 22.9959 24.5353C22.6535 24.6779 22.2863 24.7516 21.9153 24.7522H20.1074V27H21.9198C22.5865 26.9995 23.2466 26.8677 23.8622 26.612C24.4778 26.3564 25.0368 25.982 25.507 25.5103C25.9776 25.0382 26.3516 24.4792 26.608 23.8645C26.8625 23.2515 26.9934 22.5944 26.9934 21.9309H27ZM5.08026 27H7.85491V24.7522H5.08026C4.70892 24.7519 4.34131 24.6783 3.99855 24.5358C3.65579 24.3932 3.34463 24.1845 3.08295 23.9216L3.0257 23.8689C2.77881 23.6092 2.58375 23.3049 2.45095 22.9724C2.31804 22.6412 2.25002 22.2877 2.25056 21.9309V18.1318H6.28818e-06V21.9309C-0.00102122 22.5765 0.123885 23.216 0.367758 23.814C0.610814 24.4175 0.96905 24.9683 1.42257 25.4356L1.49083 25.5125C1.96408 25.9829 2.52519 26.3561 3.14241 26.6111C3.75653 26.8658 4.41518 26.9965 5.08026 26.9956V27ZM19.7287 19.7271H21.1402V21.1179H19.7287V19.7271ZM17.0069 19.7271H18.425V21.0454H15.5909V18.3406H16.9562V16.9673H18.3523V14.2295H19.7749V15.5742H21.1226V16.9651H19.7749V18.356H17.0069V19.7249V19.7271ZM12.803 16.9453H14.175V15.5544H12.8537V14.1636H14.175V12.7727H12.8251V14.1636H11.4069V12.7727H12.8008V8.64185H14.2168V12.7705H15.5887V14.1614H16.9386V12.7705H18.3545V14.1614H17.0069V15.5522H15.5909V18.29H14.219V21.052H12.803V16.9453ZM19.7066 12.7705H21.1226V14.1614H19.7066V12.7705ZM8.64326 12.7705H10.0592V14.1614H8.64326V12.7705ZM5.87522 12.7705H7.29117V14.1614H5.87522V12.7705ZM12.803 5.88208H14.219V7.27295H12.803V5.88208ZM5.8532 15.5742H11.4069V21.0938H5.8532V15.5742ZM7.20309 16.9189H10.0658V19.7556H7.20309V16.9189ZM15.5711 5.88428H21.1226V11.4016H15.5689V5.88208L15.5711 5.88428ZM16.921 7.22461H19.7837V10.0613H16.921V7.22242V7.22461ZM7.23172 7.22461H10.0945V10.0613H7.23172V7.22242V7.22461Z" fill="white"/>
</g>
<defs>
<clipPath id="clip0_168_262">
<rect width="27" height="27" fill="white"/>
</clipPath>
</defs>
</svg>
