<svg width="59" height="59" viewBox="0 0 59 59" fill="none" xmlns="http://www.w3.org/2000/svg">
<path d="M50.209 22.5085C50.4155 12.036 50.1795 15.3105 50.1795 15.3105C50.1795 12.8915 48.203 10.915 45.7545 10.915L9.73501 10.974C8.90901 10.974 8.26001 11.6525 8.26001 12.4785L8.40751 39.6185C8.40751 40.4445 9.08601 41.0935 9.88251 41.0935L45.784 41.005C48.203 41.005 50.1795 39.058 50.209 36.6095L50.268 28.615" fill="white"/>
<path d="M50.209 22.5085C50.4155 12.036 50.1795 15.3105 50.1795 15.3105C50.1795 12.8915 48.203 10.915 45.7545 10.915L9.73501 10.974C8.90901 10.974 8.26001 11.6525 8.26001 12.4785L8.40751 39.6185C8.40751 40.4445 9.08601 41.0935 9.88251 41.0935L45.784 41.005C48.203 41.005 50.1795 39.058 50.209 36.6095L50.268 28.615" stroke="white"/>
<path d="M44.486 24.0424C44.486 23.2459 45.1645 22.5969 45.9905 22.5969L51.625 22.6854C52.451 22.7149 53.1 23.3639 53.0705 24.1899L53.041 27.0809C53.0115 27.8774 52.3625 28.5264 51.5365 28.5264L45.902 28.4674C45.076 28.4674 44.427 27.7889 44.4565 26.9924L44.486 24.0424Z" fill="white" stroke="black"/>
<path d="M48.8225 26.8449C48.085 26.8449 47.495 26.2549 47.495 25.5174C47.495 24.7799 48.085 24.1899 48.8225 24.1899C49.56 24.1899 50.15 24.7799 50.15 25.5174C50.15 26.2549 49.56 26.8449 48.8225 26.8449Z" stroke="black"/>
<path d="M13.098 11.0331L34.9575 3.86459C36.521 3.36309 38.173 4.18909 38.6745 5.72309L40.415 10.8561" stroke="white"/>
<path d="M38.94 6.19507L24.4555 10.9741" stroke="white"/>
</svg>
