<svg width="38" height="38" viewBox="0 0 38 38" fill="none" xmlns="http://www.w3.org/2000/svg">
<g clip-path="url(#clip0_147_78)">
<path fill-rule="evenodd" clip-rule="evenodd" d="M38 17.2652V20.7348C38 21.8087 37.0087 22.7174 35.9348 22.7174H33.8696C33.5391 24.2043 32.9609 25.6087 32.1348 26.8478L33.6217 28.2522C34.0348 28.6652 34.2 29.1609 34.2 29.7391C34.2 30.3174 34.0348 30.813 33.6217 31.2261L31.2261 33.6217C30.813 34.0348 30.3174 34.2 29.7391 34.2C29.1609 34.2 28.6652 34.0348 28.2522 33.6217L26.7652 32.1348C25.5261 32.8783 24.2043 33.3739 22.7174 33.787V35.9348C22.7174 37.0913 21.8087 38 20.6522 38H17.2652C16.1087 38 15.2 37.0913 15.2 35.9348V33.787C13.7681 33.4014 12.4464 32.8507 11.2348 32.1348L9.66522 33.6217C9.33478 34.0348 8.75652 34.2 8.26087 34.2C7.68261 34.2 7.18696 34.0348 6.77391 33.6217L4.37826 31.2261C3.96522 30.813 3.71739 30.3174 3.71739 29.7391C3.71739 29.1609 3.96522 28.6652 4.37826 28.2522L5.78261 26.8478C5.03913 25.6087 4.46087 24.2043 4.04783 22.7174H2.06522C0.908696 22.7174 0 21.8087 0 20.7348V17.2652C0 16.1913 0.908696 15.2 2.06522 15.2H4.04783C4.43333 13.7681 5.01159 12.4188 5.78261 11.1522L4.37826 9.74783C3.96522 9.33478 3.71739 8.75652 3.71739 8.26087C3.71739 7.68261 3.96522 7.18696 4.37826 6.77391L6.77391 4.37826C7.51739 3.55217 8.92174 3.55217 9.66522 4.37826L11.2348 5.86522C12.4464 5.14928 13.7681 4.59855 15.2 4.21304V2.06522C15.2 0.908696 16.1087 0 17.2652 0H20.6522C21.8087 0 22.7174 0.908696 22.7174 2.06522V4.21304C24.2043 4.62609 25.5261 5.12174 26.7652 5.86522L28.2522 4.37826C29.0783 3.55217 30.4 3.55217 31.2261 4.37826L33.6217 6.77391C34.0348 7.18696 34.2 7.68261 34.2 8.26087C34.2 8.83913 34.0348 9.33478 33.6217 9.74783L32.1348 11.1522C32.9058 12.4188 33.4841 13.7681 33.8696 15.2H35.9348C37.0087 15.2 38 16.1913 38 17.2652ZM25.5261 19C25.5261 15.4478 22.6348 12.4739 19 12.4739C15.3652 12.4739 12.3913 15.4478 12.3913 19C12.3913 22.5522 15.3652 25.5261 19 25.5261C22.6348 25.5261 25.5261 22.5522 25.5261 19Z" stroke="white"/>
</g>
<defs>
<clipPath id="clip0_147_78">
<rect width="38" height="38" fill="white"/>
</clipPath>
</defs>
</svg>
